name Walk7.mot
datacolumns 19
datarows 10
range 2.43600000 2.44500000
endheader

                time	   L_ground_force_vx	   L_ground_force_vy	   L_ground_force_vz	   L_ground_force_px	   L_ground_force_py	   L_ground_force_pz	   R_ground_force_vx	   R_ground_force_vy	   R_ground_force_vz	   R_ground_force_px	   R_ground_force_py	   R_ground_force_pz	   L_ground_torque_x	   L_ground_torque_y	   L_ground_torque_z	   R_ground_torque_x	   R_ground_torque_y	   R_ground_torque_z	
          2.43600000	          0.00000000	          0.00000000	          0.00000000	          0.00000000	          0.00000000	          0.00000000	         -1.42765151	          0.47678935	          0.71505465	          0.08510232	          0.00000000	          0.02453568	          0.00000000	         -0.00000000	          0.00000000	          0.00000000	          0.00843462	          0.00000000	
          2.43700000	          0.00000000	          0.00000000	          0.00000000	         -0.00000000	          0.00000000	          0.00000000	         -1.62459992	         -0.38914273	          0.68194854	          0.07931480	          0.00000000	          0.02279426	          0.00000000	         -0.00000000	          0.00000000	          0.00000000	          0.00876013	          0.00000000	
          2.43800000	          0.00000000	          0.00000000	          0.00000000	         -0.00000000	          0.00000000	          0.00000000	         -1.79866397	         -1.17997918	          0.64908034	          0.07371965	          0.00000000	          0.02111477	          0.00000000	         -0.00000000	          0.00000000	          0.00000000	          0.00902486	          0.00000000	
          2.43900000	          0.00000000	          0.00000000	          0.00000000	         -0.00000000	          0.00000000	         -0.00000000	         -1.95113164	         -1.89911655	          0.61655400	          0.06832165	          0.00000000	          0.01949829	          0.00000000	         -0.00000000	          0.00000000	          0.00000000	          0.00923298	          0.00000000	
          2.44000000	          0.00000000	          0.00000000	          0.00000000	         -0.00000000	          0.00000000	         -0.00000000	         -2.08326300	         -2.54993355	          0.58446337	          0.06312444	          0.00000000	          0.01794557	          0.00000000	         -0.00000000	          0.00000000	          0.00000000	          0.00938851	          0.00000000	
          2.44100000	          0.00000000	          0.00000000	          0.00000000	         -0.00000000	          0.00000000	         -0.00000000	         -2.19628783	         -3.13577977	          0.55289267	          0.05813058	          0.00000000	          0.01645706	          0.00000000	          0.00000000	          0.00000000	          0.00000000	          0.00949534	          0.00000000	
          2.44200000	          0.00000000	          0.00000000	          0.00000000	         -0.00000000	          0.00000000	         -0.00000000	         -2.29140357	         -3.65996552	          0.52191699	          0.05334167	          0.00000000	          0.01503292	          0.00000000	          0.00000000	          0.00000000	          0.00000000	          0.00955721	          0.00000000	
          2.44300000	          0.00000000	          0.00000000	          0.00000000	         -0.00000000	          0.00000000	         -0.00000000	         -2.36977348	         -4.12575266	          0.49160278	          0.04875836	          0.00000000	          0.01367306	          0.00000000	          0.00000000	          0.00000000	          0.00000000	          0.00957771	          0.00000000	
          2.44400000	          0.00000000	          0.00000000	          0.00000000	         -0.00000000	          0.00000000	         -0.00000000	         -2.43252524	         -4.53634637	          0.46200837	          0.04438049	          0.00000000	          0.01237715	          0.00000000	          0.00000000	          0.00000000	          0.00000000	          0.00956027	          0.00000000	
          2.44500000	          0.00000000	          0.00000000	          0.00000000	         -0.00000000	          0.00000000	         -0.00000000	         -2.48074963	         -4.89488790	          0.43318437	          0.04020715	          0.00000000	          0.01114466	          0.00000000	          0.00000000	          0.00000000	          0.00000000	          0.00950818	          0.00000000	
